<svg viewBox="0 0 180 180" width="400" height="400" xmlns="http://www.w3.org/2000/svg">
    <rect width="100%" height="100%" fill="white" />
    <polygon points="9,64 40,160 140,160 171,64 90,5" fill="none" stroke="black" />

    <polygon points="9,116 40,21 140,21 171,116 90,175" fill="none" stroke="black" stroke-width="0.5" stroke-dasharray="7,3" />

    <!-- cy = height - center -->
    <circle cx="90" cy="90.5" r="86" fill="none" stroke="black" />

    <circle cx="90" cy="90" r="0.5" stroke="black" />
    <line x1="90" y1="90" x2="90" y2="160" stroke="black" stroke-width="0.5" stroke-dasharray="1" />
    <text x="93" y="123" font-size="5" >c</text>

    <line x1="90" y1="90" x2="140" y2="160" stroke="black" stroke-width="0.5" stroke-dasharray="1" />
    <text x="117" y="123" font-size="5" >r</text>

    <line x1="90" y1="90" x2="90" y2="5" stroke="black" stroke-width="0.5" stroke-dasharray="1" />
    <text x="93" y="39" font-size="5" >t</text>
    <text x="92" y="79" font-size="5" >m</text>
    <text x="84" y="110" font-size="5" >b</text>

    <line x1="90" y1="64" x2="9" y2="64" stroke="black" stroke-width="0.5" stroke-dasharray="1" />
    <text x="50" y ="70" font-size="5" >w</text>
    <text x="84" y="110" font-size="5" >b</text>

    <polyline points="140,159 140,5 90,5" stroke="black" fill="none" stroke-width="0.5" stroke-dasharray="1" />
    <polyline points="135,5 135,10 140,10" stroke="black" fill="none" stroke-width="0.5" />
    <text x="135" y="90" font-size="5" >h</text>

    <text x="89" y="167" font-size="5" >1</text>
</svg>
