<svg viewBox="0 0 190 180" width="400" height="400" xmlns="http://www.w3.org/2000/svg">
    <rect width="100%" height="100%" fill="white" />
    <polygon points="10,69 41,164 141,164 172,69 91,10" fill="none" stroke="black" />

    <line x1="91" y1="10" x2="41" y2="164" stroke="black" stroke-dasharray="2" />
    <line x1="91" y1="10" x2="141" y2="164" stroke="black" stroke-dasharray="2" />

    <text x="20" y="125" font-size="5" >1</text>
    <text x="40" y="40" font-size="5" >1</text>

    <!-- phi -->
    <path d="M 58 90 C 55.5 93 61.5 92 60 90.5 S 58.5 91 58.5 93.5" stroke="black" fill="none" stroke-width="0.4" />

    <path d="M 14 80 A 10 10 0 0 0 19 63" stroke="black" fill="none" stroke-width="0.5" />

    <!-- pi -->
    <path d="M 25.5 73 C 27.5 72.5 27.5 73 27.5 73 S 28.5 73 28 72.5
            M 27 72.8 C 26 72.5 26.8 74 25.5 75
            M 27.3 72.8 C 27.5 73 26 76 28 74.5" stroke="black" fill="none" stroke-width="0.3" />
    <text x="23" y="75" font-size="5" >3</text>
    <text x="23" y="74.5" font-size="5" >__</text>
    <text x="24" y="80" font-size="5" >5</text>
</svg>
