<svg viewBox="0 0 120 115" width="400" height="400" xmlns="http://www.w3.org/2000/svg">
    <rect width="100%" height="100%" fill="white" />
    <polygon points="10,97 110,97 60,10" fill="none" stroke="black" />

    <line x1="60" y1="97" x2="60" y2="10" stroke="black" stroke-dasharray="2" />

    <!-- sqrt -->
    <polyline points="63,59 63.5,58 64,60 65,56 67,56" fill="none" stroke="black" stroke-width="0.3" />
    <text x="65" y="60" font-size="5" >3</text>
    <text x="65" y="60" font-size="5" >_</text>
    <text x="65" y="65" font-size="5" >2</text>

    <text x="30" y="53" font-size="5" >1</text>

    <text x="35" y="103" font-size="5" >1</text>
    <text x="35" y="103" font-size="5" >_</text>
    <text x="35" y="108" font-size="5" >2</text>

    <path d="M20 97 A10 10 0 0 0 15 88" stroke="black" fill="none" stroke-width="0.5" />

    <!-- pi -->
    <path d="M21 87 C22 86.5 23 87 23 87 S24 87 23.5 86.5
            M22.5 86.8 C21.5 86.5 22.3 88 21 89
            M22.8 86.8 C23 87 21.5 90 23.5 88.5" stroke="black" fill="none" stroke-width="0.3" />
    <text x="21" y="89" font-size="5" >_</text>
    <text x="21" y="94" font-size="5" >3</text>
</svg>
